<svg width="160" height="32" viewBox="0 0 160 32" fill="none" xmlns="http://www.w3.org/2000/svg">
<path d="M25.4885 11.9756L20.3712 11.0991C19.9836 11.0333 19.65 10.7902 19.4672 10.4429L17.0526 5.84639C16.5801 4.94704 15.2923 4.94704 14.8189 5.84639L12.4042 10.4429C12.2214 10.7902 11.8878 11.0333 11.5003 11.0991L6.38298 11.9756C5.38126 12.1475 4.98278 13.3722 5.69292 14.0998L9.31764 17.8161C9.59182 18.0976 9.71979 18.4897 9.66313 18.8782L8.91549 24.0156C8.76925 25.0209 9.81119 25.7786 10.7224 25.328L15.3774 23.0284C15.7293 22.8548 16.1424 22.8548 16.4943 23.0284L21.1493 25.328C22.0605 25.7777 23.1024 25.0209 22.9562 24.0156L22.2086 18.8782C22.1519 18.4897 22.2799 18.0967 22.5541 17.8161L26.1788 14.0998C26.8881 13.3723 26.4905 12.1476 25.4888 11.9756H25.4885Z" fill="#FF8C42"/>
<path d="M57.4885 11.9756L52.3712 11.0991C51.9836 11.0333 51.65 10.7902 51.4672 10.4429L49.0526 5.84639C48.5801 4.94704 47.2923 4.94704 46.8189 5.84639L44.4042 10.4429C44.2214 10.7902 43.8878 11.0333 43.5003 11.0991L38.383 11.9756C37.3813 12.1475 36.9828 13.3722 37.6929 14.0998L41.3176 17.8161C41.5918 18.0976 41.7198 18.4897 41.6631 18.8782L40.9155 24.0156C40.7692 25.0209 41.8112 25.7786 42.7224 25.328L47.3774 23.0284C47.7293 22.8548 48.1424 22.8548 48.4943 23.0284L53.1493 25.328C54.0605 25.7777 55.1024 25.0209 54.9562 24.0156L54.2086 18.8782C54.1519 18.4897 54.2799 18.0967 54.5541 17.8161L58.1788 14.0998C58.8881 13.3723 58.4905 12.1476 57.4888 11.9756H57.4885Z" fill="#FF8C42"/>
<path d="M89.4885 11.9756L84.3712 11.0991C83.9836 11.0333 83.65 10.7902 83.4672 10.4429L81.0526 5.84639C80.5801 4.94704 79.2923 4.94704 78.8189 5.84639L76.4042 10.4429C76.2214 10.7902 75.8878 11.0333 75.5003 11.0991L70.383 11.9756C69.3813 12.1475 68.9828 13.3722 69.6929 14.0998L73.3176 17.8161C73.5918 18.0976 73.7198 18.4897 73.6631 18.8782L72.9155 24.0156C72.7692 25.0209 73.8112 25.7786 74.7224 25.328L79.3774 23.0284C79.7293 22.8548 80.1424 22.8548 80.4943 23.0284L85.1493 25.328C86.0605 25.7777 87.1024 25.0209 86.9562 24.0156L86.2086 18.8782C86.1519 18.4897 86.2799 18.0967 86.5541 17.8161L90.1788 14.0998C90.8881 13.3723 90.4905 12.1476 89.4888 11.9756H89.4885Z" fill="#FF8C42"/>
<path d="M121.488 11.9756L116.371 11.0991C115.984 11.0333 115.65 10.7902 115.467 10.4429L113.053 5.84639C112.58 4.94704 111.292 4.94704 110.819 5.84639L108.404 10.4429C108.221 10.7902 107.888 11.0333 107.5 11.0991L102.383 11.9756C101.381 12.1475 100.983 13.3722 101.693 14.0998L105.318 17.8161C105.592 18.0976 105.72 18.4897 105.663 18.8782L104.915 24.0156C104.769 25.0209 105.811 25.7786 106.722 25.328L111.377 23.0284C111.729 22.8548 112.142 22.8548 112.494 23.0284L117.149 25.328C118.061 25.7777 119.102 25.0209 118.956 24.0156L118.209 18.8782C118.152 18.4897 118.28 18.0967 118.554 17.8161L122.179 14.0998C122.888 13.3723 122.49 12.1476 121.489 11.9756H121.488Z" fill="#FF8C42"/>
<path d="M153.488 11.9756L148.371 11.0991C147.984 11.0333 147.65 10.7902 147.467 10.4429L145.053 5.84639C144.58 4.94704 143.292 4.94704 142.819 5.84639L140.404 10.4429C140.221 10.7902 139.888 11.0333 139.5 11.0991L134.383 11.9756C133.381 12.1475 132.983 13.3722 133.693 14.0998L137.318 17.8161C137.592 18.0976 137.72 18.4897 137.663 18.8782L136.915 24.0156C136.769 25.0209 137.811 25.7786 138.722 25.328L143.377 23.0284C143.729 22.8548 144.142 22.8548 144.494 23.0284L149.149 25.328C150.061 25.7777 151.102 25.0209 150.956 24.0156L150.209 18.8782C150.152 18.4897 150.28 18.0967 150.554 17.8161L154.179 14.0998C154.888 13.3723 154.49 12.1476 153.489 11.9756H153.488Z" fill="#FF8C42"/>
</svg>
