<svg width="407" height="32" viewBox="0 0 407 32" fill="none" xmlns="http://www.w3.org/2000/svg">
<path fill-rule="evenodd" clip-rule="evenodd" d="M32.3839 7.19985C35.0641 4.42486 37.8556 2.81032 42.1625 2.81032C50.0499 2.81032 51.2451 12.8142 45.1445 12.8777C41.0212 12.9221 34.7465 8.25678 32.3839 7.19985ZM20.4236 24.1177C17.7425 26.8927 14.9519 28.5072 10.6441 28.5072C2.75759 28.5072 1.56583 18.5051 7.66211 18.4407C11.7854 18.3946 18.0601 23.0608 20.4236 24.1177ZM29.0922 11.585C31.3461 12.789 37.4528 16.259 42.0015 16.9462C47.9917 17.8518 52.8031 15.022 52.8031 9.45724C52.6056 -1.69056 37.6825 -3.30684 30.9886 6.34038C24.3451 2.52151 6.3442 -4.17152 1.41272 5.6923L1.97033 5.93675C7.79085 -0.113425 22.5662 8.08889 27.997 11.0596C26.512 14.668 25.8353 16.4121 23.7153 19.7325C21.4614 18.5286 15.3547 15.0585 10.8059 14.3713C4.81491 13.4658 0 16.2955 0 21.8603C0.200948 33.0081 15.1241 34.627 21.818 24.9763C28.4615 28.7934 46.4633 35.4891 51.3947 25.6252L50.8371 25.3808C45.0157 31.431 30.2413 23.2252 24.8105 20.258C26.0362 17.2785 27.3524 14.3087 29.0922 11.585Z" fill="black"/>
<path d="M101.199 27.7227V24.586H93.0566V4.27658H89.6348V27.7227H101.199Z" fill="black"/>
<path d="M130.074 20.0552C130.074 22.9384 128.427 25.0296 125.638 25.0296C122.85 25.0296 121.203 22.9701 121.203 20.0552V4.27658H117.781V20.3087C117.781 25.188 121.234 28.1663 125.638 28.1663C130.042 28.1663 133.496 25.2197 133.496 20.3087V4.27658H130.074V20.0552Z" fill="black"/>
<path d="M158.228 27.7227V7.41329H162.727V4.27658H150.307V7.41329H154.806V27.7227H158.228Z" fill="black"/>
<path d="M196.129 27.7227V4.27658H192.707V14.3838H183.044V4.27658H179.622V27.7227H183.044V17.5205H192.707V27.7227H196.129Z" fill="black"/>
<path d="M227.43 27.7227V24.586H218.21V17.4571H227.43V14.3204H218.21V7.41329H227.43V4.27658H214.788V27.7227H227.43Z" fill="black"/>
<path d="M261 27.7227L254.442 18.9779C257.737 18.8829 261.159 16.5383 261.159 12.0708C261.159 7.25487 258.656 4.27658 253.016 4.27658H245.507V27.7227H248.929V16.8551H248.992L256.723 27.7227H261ZM248.929 16.3799V7.41329H252.541C255.582 7.41329 257.737 9.09255 257.737 11.7857C257.737 14.8273 255.424 16.3799 251.432 16.3799H248.929Z" fill="black"/>
<path d="M298.757 27.7227V7.41329H303.256V4.27658H290.836V7.41329H295.335V27.7227H298.757Z" fill="black"/>
<path d="M332.476 27.7227V24.586H323.256V17.4571H332.476V14.3204H323.256V7.41329H332.476V4.27658H319.834V27.7227H332.476Z" fill="black"/>
<path d="M368.169 21.9245C366.268 24.0791 364.082 25.0296 361.642 25.0296C356.826 25.0296 353.119 20.6889 353.119 15.7779C353.119 11.1203 356.921 6.96972 361.832 6.96972C364.589 6.96972 366.648 8.20539 368.423 10.2649H372.542C370.165 5.86078 366.015 3.83301 361.579 3.83301C355.274 3.83301 349.697 9.02918 349.697 16.0947C349.697 22.3364 355.052 28.1663 361.547 28.1663C366.236 28.1663 370.007 26.0118 372.383 21.9245H368.169Z" fill="black"/>
<path d="M406.419 27.7227V4.27658H402.997V14.3838H393.333V4.27658H389.912V27.7227H393.333V17.5205H402.997V27.7227H406.419Z" fill="black"/>
</svg>
