<svg width="159" height="33" viewBox="0 0 159 33" fill="none" xmlns="http://www.w3.org/2000/svg">
<mask id="mask0_254_1040" style="mask-type:luminance" maskUnits="userSpaceOnUse" x="0" y="6" width="33" height="20">
<path d="M32.1212 6.42432H0V25.4756H32.1212V6.42432Z" fill="white"/>
</mask>
<g mask="url(#mask0_254_1040)">
<path fill-rule="evenodd" clip-rule="evenodd" d="M19.6985 10.8038C21.3288 9.11584 23.0268 8.13381 25.6466 8.13381C30.4443 8.13381 31.1714 14.2189 27.4605 14.2576C24.9523 14.2845 21.1356 11.4468 19.6985 10.8038ZM12.4233 21.0946C10.7924 22.7826 9.09496 23.7647 6.47462 23.7647C1.67739 23.7647 0.952458 17.6806 4.66071 17.6415C7.16885 17.6134 10.9856 20.4517 12.4233 21.0946ZM17.6962 13.4712C19.0672 14.2036 22.7818 16.3144 25.5487 16.7324C29.1924 17.2832 32.1191 15.5619 32.1191 12.177C31.999 5.39598 22.9215 4.41283 18.8497 10.281C14.8087 7.95811 3.85905 3.88687 0.859331 9.88683L1.19851 10.0355C4.73902 6.35532 13.7265 11.3446 17.03 13.1516C16.1268 15.3465 15.7151 16.4075 14.4256 18.4272C13.0545 17.6949 9.33996 15.5842 6.57304 15.1661C2.92882 14.6153 0 16.3366 0 19.7215C0.122232 26.5025 9.19968 27.4872 13.2715 21.6169C17.3125 23.9388 28.2626 28.0116 31.2624 22.0116L30.9233 21.863C27.3822 25.5432 18.3952 20.5517 15.0917 18.7468C15.8373 16.9345 16.6379 15.128 17.6962 13.4712Z" fill="black"/>
</g>
<path d="M61.557 23.2882V21.3802H56.6039V9.02637H54.5225V23.2882H61.557ZM79.121 18.6242C79.121 20.378 78.1188 21.65 76.4228 21.65C74.7268 21.65 73.7246 20.3973 73.7246 18.6242V9.02637H71.6431V18.7784C71.6431 21.7464 73.7439 23.558 76.4228 23.558C79.1017 23.558 81.2023 21.7656 81.2023 18.7784V9.02637H79.121V18.6242ZM96.2463 23.2882V10.9344H98.983V9.02637H91.4281V10.9344H94.1649V23.2882H96.2463ZM119.301 23.2882V9.02637H117.219V15.1744H111.341V9.02637H109.259V23.2882H111.341V17.0824H117.219V23.2882H119.301ZM138.34 23.2882V21.3802H132.732V17.0438H138.34V15.1358H132.732V10.9344H138.34V9.02637H130.651V23.2882H138.34ZM158.761 23.2882L154.771 17.9689C156.776 17.9111 158.857 16.4849 158.857 13.7675C158.857 10.838 157.334 9.02637 153.904 9.02637H149.336V23.2882H151.418V16.6776H151.456L156.159 23.2882H158.761ZM151.418 16.3886V10.9344H153.615C155.465 10.9344 156.776 11.9558 156.776 13.594C156.776 15.4442 155.369 16.3886 152.94 16.3886H151.418Z" fill="black"/>
</svg>
