<svg width="40" height="24" viewBox="0 0 40 24" fill="none" xmlns="http://www.w3.org/2000/svg">
<mask id="mask0_254_1058" style="mask-type:luminance" maskUnits="userSpaceOnUse" x="0" y="0" width="40" height="24">
<path d="M40 0H0V23.7243H40V0Z" fill="white"/>
</mask>
<g mask="url(#mask0_254_1058)">
<path fill-rule="evenodd" clip-rule="evenodd" d="M24.5302 5.45371C26.5604 3.35171 28.6749 2.12881 31.9373 2.12881C37.9118 2.12881 38.8172 9.70651 34.1961 9.75461C31.0727 9.78821 26.3198 6.25441 24.5302 5.45371ZM15.4705 18.2687C13.4396 20.3707 11.3258 21.5937 8.06273 21.5937C2.08882 21.5937 1.18608 14.0173 5.8039 13.9685C8.92725 13.9336 13.6802 17.4681 15.4705 18.2687ZM22.0368 8.7754C23.7441 9.6874 28.3698 12.3159 31.8154 12.8365C36.3528 13.5224 39.9974 11.3789 39.9974 7.16371C39.8478 -1.28056 28.5438 -2.50486 23.4732 4.80271C18.441 1.91001 4.80561 -3.15984 1.07011 4.31181L1.49249 4.497C5.90142 -0.0859151 17.0934 6.1272 21.2072 8.3774C20.0824 11.1107 19.5697 12.4319 17.9639 14.947C16.2566 14.0351 11.6309 11.4066 8.18529 10.886C3.64721 10.2001 0 12.3436 0 16.5588C0.152214 25.003 11.4562 26.2293 16.5268 18.9191C21.559 21.8105 35.195 26.8823 38.9305 19.4106L38.5082 19.2255C34.0986 23.8084 22.9072 17.5926 18.7935 15.345C19.7219 13.0882 20.7189 10.8386 22.0368 8.7754Z" fill="black"/>
</g>
</svg>
