<svg width="56" height="56" viewBox="0 0 56 56" fill="none" xmlns="http://www.w3.org/2000/svg">
<g clip-path="url(#clip0_157_959)">
<mask id="mask0_157_959" style="mask-type:luminance" maskUnits="userSpaceOnUse" x="0" y="0" width="56" height="56">
<path d="M56 28C56 12.536 43.464 0 28 0C12.536 0 0 12.536 0 28C0 43.464 12.536 56 28 56C43.464 56 56 43.464 56 28Z" fill="white"/>
</mask>
<g mask="url(#mask0_157_959)">
<path d="M56 0H0V56H56V0Z" fill="black"/>
<path fill-rule="evenodd" clip-rule="evenodd" d="M31.0815 23.6438C32.4623 22.2146 33.8994 21.3831 36.118 21.3831C40.1795 21.3831 40.7951 26.5338 37.6537 26.5678C35.5302 26.5907 32.2988 24.1881 31.0815 23.6438ZM24.9224 32.3564C23.5417 33.7856 22.1045 34.6171 19.886 34.6171C15.8245 34.6171 15.2089 29.4664 18.3503 29.4324C20.4738 29.4091 23.7052 31.8121 24.9224 32.3564ZM29.3863 25.9021C30.5471 26.5222 33.692 28.3092 36.0346 28.6636C39.12 29.13 41.5997 27.6726 41.5997 24.8068C41.4962 19.0656 33.8108 18.2319 30.3634 23.202C26.942 21.2366 17.6716 17.7884 15.1319 22.8683L15.419 22.9942C18.417 19.8783 26.0258 24.1034 28.8227 25.632C28.058 27.4907 27.7095 28.3889 26.6177 30.0985C25.4569 29.4785 22.3119 27.6914 19.9693 27.3371C16.884 26.8707 14.4043 28.328 14.4043 31.1939C14.5078 36.935 22.1932 37.7687 25.6406 32.7986C29.062 34.764 38.3324 38.2123 40.8721 33.1324L40.585 33.0065C37.5869 36.1223 29.9781 31.8972 27.1813 30.3682C27.8129 28.8343 28.4908 27.3048 29.3863 25.9021Z" fill="white"/>
</g>
</g>
<defs>
<clipPath id="clip0_157_959">
<rect width="56" height="56" fill="white"/>
</clipPath>
</defs>
</svg>
